<svg width="167" height="168" viewBox="0 0 167 168" fill="none" xmlns="http://www.w3.org/2000/svg">
<g clip-path="url(#clip0_15_65)">
<rect width="166.875" height="166.875" transform="translate(0.0742188 0.25)" fill="#6735D0"/>
<path d="M24.7578 64.7777C25.4327 63.5044 26.5057 62.7317 27.761 62.0621C44.5945 53.0754 61.4173 44.0684 78.2295 35.0412C79.3076 34.4646 80.4228 33.9353 81.4587 33.2978C82.6651 32.5623 83.7854 32.5809 85.0221 33.2573C93.6087 37.8791 102.203 42.4807 110.804 47.0619C120.174 52.0828 129.544 57.1048 138.912 62.128C139.349 62.3613 139.828 62.5135 140.272 62.7367C141.51 63.3556 142.165 64.3702 142.248 65.7533C142.26 65.9444 142.258 66.1372 142.258 66.3282C142.258 82.1767 142.258 98.0251 142.258 113.873C142.258 116.56 140.716 117.986 138.053 117.815C137.203 117.775 136.398 117.421 135.794 116.821C135.189 116.221 134.827 115.418 134.779 114.567C134.747 114.109 134.762 113.647 134.762 113.185V73.9289C134.762 72.4409 134.753 72.4291 133.476 73.1122C117.428 81.7032 101.383 90.3004 85.3426 98.9038C84.0081 99.619 82.687 99.6309 81.4031 98.9461C71.0776 93.4416 60.7599 87.9224 50.4501 82.3886C42.7634 78.2729 35.0743 74.1623 27.3831 70.0567C26.1801 69.4175 25.2387 68.6059 24.7578 67.3107V64.7777Z" fill="white"/>
<path d="M120.939 97.7027C120.939 99.3833 120.849 101.071 120.956 102.744C121.326 108.603 118.862 113.039 115.115 116.778C109.13 122.75 101.914 125.959 94.0925 127.645C83.2611 129.982 72.7694 128.635 62.7104 123.63C57.6319 121.103 53.0671 117.773 49.7952 112.652C48.0781 109.963 47.1858 107.012 47.2449 103.675C47.3278 99.0516 47.2788 94.4268 47.2568 89.8019C47.2568 88.8347 47.3886 88.4642 48.335 89.0126C58.4566 94.8659 68.6153 100.628 78.7014 106.571C81.4376 108.184 84.1298 108.67 87.0772 107.821C88.3194 107.464 89.3385 106.598 90.4573 105.959C100.293 100.323 110.122 94.6689 119.943 88.9978C120.878 88.4567 120.957 88.894 120.957 89.7575C120.927 92.4053 120.939 95.053 120.939 97.7027Z" fill="white"/>
</g>
<defs>
<clipPath id="clip0_15_65">
<rect x="0.0742188" y="0.25" width="166.875" height="166.875" rx="36.9307" fill="white"/>
</clipPath>
</defs>
</svg>
